<svg width="59" height="60" viewBox="0 0 59 60" fill="none" xmlns="http://www.w3.org/2000/svg">
<g filter="url(#filter0_i_1171_201)">
<path d="M9.42188 0V4.71094H4.71094V9.42188H0V50.25H4.71094V54.9609H9.42188V59.6719H49.4648V54.9609H54.1758V50.25H58.8867V9.42188H54.1758V4.71094H49.4648V0H9.42188Z" fill="#5D8B22"/>
</g>
<path d="M47.1094 2.35547V7.06641H51.8203V11.7773H56.5312V47.8945H51.8203V52.6055H47.1094V57.3164H11.7773V52.6055H7.06641V47.8945H2.35547V11.7773H7.06641V7.06641H11.7773V2.35547H47.1094Z" stroke="#49281C" stroke-width="4.71094"/>
<path d="M45.5391 15.7031H39.2578V20.4141H34.5469V25.125H29.8359V29.8359H25.125V34.5469H18.8438V29.8359H12.5625V40.8281H17.2734V43.9688H26.6953V40.8281H31.4062V36.1172H36.1172V31.4062H40.8281V26.6953H45.5391V15.7031Z" fill="#D8D561"/>
<defs>
<filter id="filter0_i_1171_201" x="0" y="0" width="58.8867" height="59.6719" filterUnits="userSpaceOnUse" color-interpolation-filters="sRGB">
<feFlood flood-opacity="0" result="BackgroundImageFix"/>
<feBlend mode="normal" in="SourceGraphic" in2="BackgroundImageFix" result="shape"/>
<feColorMatrix in="SourceAlpha" type="matrix" values="0 0 0 0 0 0 0 0 0 0 0 0 0 0 0 0 0 0 127 0" result="hardAlpha"/>
<feOffset dy="-10.9922"/>
<feComposite in2="hardAlpha" operator="arithmetic" k2="-1" k3="1"/>
<feColorMatrix type="matrix" values="0 0 0 0 0 0 0 0 0 0 0 0 0 0 0 0 0 0 0.25 0"/>
<feBlend mode="normal" in2="shape" result="effect1_innerShadow_1171_201"/>
</filter>
</defs>
</svg>
