<svg width="31" height="31" viewBox="0 0 31 31" fill="none" xmlns="http://www.w3.org/2000/svg">
<path d="M28.9502 13.72V16.77H27.4302V18.29H30.4702V12.19H27.4302V13.72H28.9502Z" fill="#FFDA80"/>
<path d="M27.4299 22.86H25.8999V24.38H27.4299V22.86Z" fill="#FFDA80"/>
<path d="M27.4299 18.29H25.8999V21.34H27.4299V18.29Z" fill="#FFDA80"/>
<path d="M27.4299 9.15002H25.8999V12.19H27.4299V9.15002Z" fill="#FFDA80"/>
<path d="M27.4299 6.09998H25.8999V7.61998H27.4299V6.09998Z" fill="#FFDA80"/>
<path d="M25.8999 24.38H24.3799V25.91H25.8999V24.38Z" fill="#FFDA80"/>
<path d="M25.8999 21.34H24.3799V22.86H25.8999V21.34Z" fill="#FFDA80"/>
<path d="M25.8999 7.62H24.3799V9.14999H25.8999V7.62Z" fill="#FFDA80"/>
<path d="M25.8999 4.58002H24.3799V6.10002H25.8999V4.58002Z" fill="#FFDA80"/>
<path d="M24.3801 25.91H22.8501V27.43H24.3801V25.91Z" fill="#FFDA80"/>
<path d="M24.3801 12.19H22.8501V18.29H24.3801V12.19Z" fill="#FFDA80"/>
<path d="M24.3801 3.04999H22.8501V4.57999H24.3801V3.04999Z" fill="#FFDA80"/>
<path d="M22.8501 24.38H21.3301V25.91H22.8501V24.38Z" fill="#FFDA80"/>
<path d="M22.8501 18.29H21.3301V21.34H22.8501V18.29Z" fill="#FFDA80"/>
<path d="M22.8501 9.15002H21.3301V12.19H22.8501V9.15002Z" fill="#FFDA80"/>
<path d="M22.8501 4.58002H21.3301V6.10002H22.8501V4.58002Z" fill="#FFDA80"/>
<path d="M21.3298 25.91H18.2798V27.43H21.3298V25.91Z" fill="#FFDA80"/>
<path d="M21.3298 21.34H18.2798V22.86H21.3298V21.34Z" fill="#FFDA80"/>
<path d="M21.3298 7.62H18.2798V9.14999H21.3298V7.62Z" fill="#FFDA80"/>
<path d="M21.3298 3.04999H18.2798V4.57999H21.3298V3.04999Z" fill="#FFDA80"/>
<path d="M16.7599 28.96H13.7099V27.43H12.1899V30.48H18.2799V27.43H16.7599V28.96Z" fill="#FFDA80"/>
<path d="M18.2799 22.86H12.1899V24.38H18.2799V22.86Z" fill="#FFDA80"/>
<path d="M13.7099 18.29H16.7599V16.77H18.2799V13.72H16.7599V12.19H13.7099V13.72H12.1899V16.77H13.7099V18.29Z" fill="#FFDA80"/>
<path d="M18.2799 6.09998H12.1899V7.61998H18.2799V6.09998Z" fill="#FFDA80"/>
<path d="M13.7099 1.53H16.7599V3.05H18.2799V0H12.1899V3.05H13.7099V1.53Z" fill="#FFDA80"/>
<path d="M12.1901 25.91H9.14014V27.43H12.1901V25.91Z" fill="#FFDA80"/>
<path d="M12.1901 21.34H9.14014V22.86H12.1901V21.34Z" fill="#FFDA80"/>
<path d="M12.1901 7.62H9.14014V9.14999H12.1901V7.62Z" fill="#FFDA80"/>
<path d="M12.1901 3.04999H9.14014V4.57999H12.1901V3.04999Z" fill="#FFDA80"/>
<path d="M9.14012 24.38H7.62012V25.91H9.14012V24.38Z" fill="#FFDA80"/>
<path d="M9.14012 18.29H7.62012V21.34H9.14012V18.29Z" fill="#FFDA80"/>
<path d="M9.14012 9.15002H7.62012V12.19H9.14012V9.15002Z" fill="#FFDA80"/>
<path d="M9.14012 4.58002H7.62012V6.10002H9.14012V4.58002Z" fill="#FFDA80"/>
<path d="M7.61984 25.91H6.08984V27.43H7.61984V25.91Z" fill="#FFDA80"/>
<path d="M7.61984 12.19H6.08984V18.29H7.61984V12.19Z" fill="#FFDA80"/>
<path d="M7.61984 3.04999H6.08984V4.57999H7.61984V3.04999Z" fill="#FFDA80"/>
<path d="M6.08982 24.38H4.56982V25.91H6.08982V24.38Z" fill="#FFDA80"/>
<path d="M6.08982 21.34H4.56982V22.86H6.08982V21.34Z" fill="#FFDA80"/>
<path d="M6.08982 7.62H4.56982V9.14999H6.08982V7.62Z" fill="#FFDA80"/>
<path d="M6.08982 4.58002H4.56982V6.10002H6.08982V4.58002Z" fill="#FFDA80"/>
<path d="M4.5698 22.86H3.0498V24.38H4.5698V22.86Z" fill="#FFDA80"/>
<path d="M4.5698 18.29H3.0498V21.34H4.5698V18.29Z" fill="#FFDA80"/>
<path d="M4.5698 9.15002H3.0498V12.19H4.5698V9.15002Z" fill="#FFDA80"/>
<path d="M4.5698 6.09998H3.0498V7.61998H4.5698V6.09998Z" fill="#FFDA80"/>
<path d="M3.05 16.77H1.52V13.72H3.05V12.19H0V18.29H3.05V16.77Z" fill="#FFDA80"/>
</svg>
