<svg width="590" height="741" viewBox="0 0 590 741" fill="none" xmlns="http://www.w3.org/2000/svg">
<g filter="url(#filter0_n_1070_928)">
<rect x="49" y="114.261" width="502" height="580" fill="url(#paint0_linear_1070_928)"/>
</g>
<rect x="137" y="158.261" width="15" height="5" fill="#582F19"/>
<rect x="496" y="698.261" width="30" height="5" transform="rotate(180 496 698.261)" fill="#753E1F"/>
<rect x="272" y="688.261" width="30" height="5" transform="rotate(180 272 688.261)" fill="#753E1F"/>
<rect width="30" height="5" transform="matrix(-1 0 0 1 298 714.261)" fill="#753E1F"/>
<g clip-path="url(#clip0_1070_928)">
<path d="M0 65.2612H590V121.261H0V65.2612Z" fill="#E69C69"/>
<rect x="9.53906" y="78.2612" width="571" height="38" fill="#BF6F4A"/>
<rect x="46" y="83.2612" width="512" height="40" fill="#8A4836"/>
<rect x="38.0781" y="88.1079" width="17.7692" height="40.6154" fill="#8A4836"/>
<rect x="2.53906" y="93.1846" width="45.6923" height="40.6154" fill="#8A4836"/>
<rect x="2.53906" y="77.9536" width="7.61538" height="55.8462" fill="#8A4836"/>
<rect x="7.61328" y="83.0308" width="7.61538" height="55.8462" fill="#8A4836"/>
<rect x="12.6914" y="88.1079" width="7.61538" height="55.8462" fill="#8A4836"/>
<rect x="2.53906" y="83.0308" width="7.61538" height="50.7692" fill="#5D2C28"/>
<rect x="119.309" y="70.3384" width="22.8462" height="5.07692" fill="#EEEEEE"/>
<rect x="297" y="70.3384" width="53.3077" height="5.07692" fill="#EEEEEE"/>
<rect x="208.156" y="70.3384" width="30.4615" height="5.07692" fill="#EEEEEE"/>
<rect x="577.539" y="70.3384" width="7.61538" height="5.07692" fill="#EEEEEE"/>
<rect x="509" y="70.3384" width="63.4615" height="5.07692" fill="#EEEEEE"/>
<rect x="2.53906" y="111.261" width="583" height="7" fill="#5D2C28"/>
<rect x="30.4609" y="98.2612" width="10.1538" height="10.1538" transform="rotate(180 30.4609 98.2612)" fill="#D9D9D9"/>
<rect x="30.4609" y="98.2612" width="5.07692" height="5.07692" transform="rotate(180 30.4609 98.2612)" fill="#BFBFBF"/>
<rect x="25.3867" y="98.2612" width="5.07692" height="5.07692" transform="rotate(180 25.3867 98.2612)" fill="#242424"/>
<rect x="25.3867" y="93.1846" width="5.07692" height="5.07692" transform="rotate(180 25.3867 93.1846)" fill="#606060"/>
<rect x="20.3086" y="83.0308" width="10.1538" height="5.07692" fill="#1E1E1E"/>
<rect x="15.2305" y="98.2612" width="10.1538" height="5.07692" transform="rotate(-90 15.2305 98.2612)" fill="#1E1E1E"/>
<rect x="30.4609" y="98.2612" width="10.1538" height="5.07692" transform="rotate(-90 30.4609 98.2612)" fill="#1E1E1E"/>
<rect x="30.4609" y="103.338" width="10.1538" height="5.07692" transform="rotate(-180 30.4609 103.338)" fill="#1E1E1E"/>
<rect x="15.2305" y="98.2612" width="5.07692" height="5.07692" fill="#391F21"/>
<rect x="20.3086" y="103.338" width="5.07692" height="5.07692" fill="#391F21"/>
<rect x="25.3867" y="103.338" width="5.07692" height="5.07692" fill="#391F21"/>
<rect x="30.4609" y="98.2612" width="5.07692" height="5.07692" fill="#5D2C28"/>
<rect x="30.4609" y="103.338" width="5.07692" height="5.07692" fill="#5D2C28"/>
<rect width="10.1538" height="10.1538" transform="matrix(1 0 0 -1 553.078 98.2612)" fill="#D9D9D9"/>
<rect width="5.07692" height="5.07692" transform="matrix(1 0 0 -1 553.078 98.2612)" fill="#BFBFBF"/>
<rect width="5.07692" height="5.07692" transform="matrix(1 0 0 -1 558.152 98.2612)" fill="#242424"/>
<rect width="5.07692" height="5.07692" transform="matrix(1 0 0 -1 558.152 93.1846)" fill="#606060"/>
<rect width="10.1538" height="5.07692" transform="matrix(-1 0 0 1 563.23 83.0308)" fill="#1E1E1E"/>
<rect width="10.1538" height="5.07692" transform="matrix(0 -1 -1 0 568.309 98.2612)" fill="#1E1E1E"/>
<rect width="10.1538" height="5.07692" transform="matrix(0 -1 -1 0 553.078 98.2612)" fill="#1E1E1E"/>
<rect width="10.1538" height="5.07692" transform="matrix(1 0 0 -1 553.078 103.338)" fill="#1E1E1E"/>
<rect width="5.07692" height="5.07692" transform="matrix(-1 0 0 1 568.309 98.2612)" fill="#391F21"/>
<rect width="5.07692" height="5.07692" transform="matrix(-1 0 0 1 563.23 103.338)" fill="#391F21"/>
<rect width="5.07692" height="5.07692" transform="matrix(-1 0 0 1 558.152 103.338)" fill="#391F21"/>
<rect width="5.07692" height="5.07692" transform="matrix(-1 0 0 1 553.078 98.2612)" fill="#5D2C28"/>
<rect width="5.07692" height="5.07692" transform="matrix(-1 0 0 1 553.078 103.338)" fill="#5D2C28"/>
</g>
<path d="M587.462 67.7993V118.723H2.53809V67.7993H587.462Z" stroke="#131313" stroke-width="5.07692"/>
<g clip-path="url(#clip1_1070_928)">
<path d="M0 684.261H590V740.261H0V684.261Z" fill="#E69C69"/>
<rect x="9.53906" y="697.261" width="571" height="38" fill="#BF6F4A"/>
<rect x="46" y="702.261" width="512" height="40" fill="#8A4836"/>
<rect x="38.0781" y="707.108" width="17.7692" height="40.6154" fill="#8A4836"/>
<rect x="2.53906" y="712.185" width="45.6923" height="40.6154" fill="#8A4836"/>
<rect x="2.53906" y="696.954" width="7.61538" height="55.8462" fill="#8A4836"/>
<rect x="7.61328" y="702.031" width="7.61538" height="55.8462" fill="#8A4836"/>
<rect x="12.6914" y="707.108" width="7.61538" height="55.8462" fill="#8A4836"/>
<rect x="2.53906" y="702.031" width="7.61538" height="50.7692" fill="#5D2C28"/>
<rect x="119.309" y="689.338" width="22.8462" height="5.07692" fill="#EEEEEE"/>
<rect x="297" y="689.338" width="53.3077" height="5.07692" fill="#EEEEEE"/>
<rect x="208.156" y="689.338" width="30.4615" height="5.07692" fill="#EEEEEE"/>
<rect x="577.539" y="689.338" width="7.61538" height="5.07692" fill="#EEEEEE"/>
<rect x="509" y="689.338" width="63.4615" height="5.07692" fill="#EEEEEE"/>
<rect x="2.53906" y="730.261" width="583" height="7" fill="#5D2C28"/>
<rect x="30.4609" y="717.261" width="10.1538" height="10.1538" transform="rotate(180 30.4609 717.261)" fill="#D9D9D9"/>
<rect x="30.4609" y="717.261" width="5.07692" height="5.07692" transform="rotate(180 30.4609 717.261)" fill="#BFBFBF"/>
<rect x="25.3867" y="717.261" width="5.07692" height="5.07692" transform="rotate(180 25.3867 717.261)" fill="#242424"/>
<rect x="25.3867" y="712.185" width="5.07692" height="5.07692" transform="rotate(180 25.3867 712.185)" fill="#606060"/>
<rect x="20.3086" y="702.031" width="10.1538" height="5.07692" fill="#1E1E1E"/>
<rect x="15.2305" y="717.261" width="10.1538" height="5.07692" transform="rotate(-90 15.2305 717.261)" fill="#1E1E1E"/>
<rect x="30.4609" y="717.261" width="10.1538" height="5.07692" transform="rotate(-90 30.4609 717.261)" fill="#1E1E1E"/>
<rect x="30.4609" y="722.338" width="10.1538" height="5.07692" transform="rotate(-180 30.4609 722.338)" fill="#1E1E1E"/>
<rect x="15.2305" y="717.261" width="5.07692" height="5.07692" fill="#391F21"/>
<rect x="20.3086" y="722.338" width="5.07692" height="5.07692" fill="#391F21"/>
<rect x="25.3867" y="722.338" width="5.07692" height="5.07692" fill="#391F21"/>
<rect x="30.4609" y="717.261" width="5.07692" height="5.07692" fill="#5D2C28"/>
<rect x="30.4609" y="722.338" width="5.07692" height="5.07692" fill="#5D2C28"/>
<rect width="10.1538" height="10.1538" transform="matrix(1 0 0 -1 553.078 717.261)" fill="#D9D9D9"/>
<rect width="5.07692" height="5.07692" transform="matrix(1 0 0 -1 553.078 717.261)" fill="#BFBFBF"/>
<rect width="5.07692" height="5.07692" transform="matrix(1 0 0 -1 558.152 717.261)" fill="#242424"/>
<rect width="5.07692" height="5.07692" transform="matrix(1 0 0 -1 558.152 712.185)" fill="#606060"/>
<rect width="10.1538" height="5.07692" transform="matrix(-1 0 0 1 563.23 702.031)" fill="#1E1E1E"/>
<rect width="10.1538" height="5.07692" transform="matrix(0 -1 -1 0 568.309 717.261)" fill="#1E1E1E"/>
<rect width="10.1538" height="5.07692" transform="matrix(0 -1 -1 0 553.078 717.261)" fill="#1E1E1E"/>
<rect width="10.1538" height="5.07692" transform="matrix(1 0 0 -1 553.078 722.338)" fill="#1E1E1E"/>
<rect width="5.07692" height="5.07692" transform="matrix(-1 0 0 1 568.309 717.261)" fill="#391F21"/>
<rect width="5.07692" height="5.07692" transform="matrix(-1 0 0 1 563.23 722.338)" fill="#391F21"/>
<rect width="5.07692" height="5.07692" transform="matrix(-1 0 0 1 558.152 722.338)" fill="#391F21"/>
<rect width="5.07692" height="5.07692" transform="matrix(-1 0 0 1 553.078 717.261)" fill="#5D2C28"/>
<rect width="5.07692" height="5.07692" transform="matrix(-1 0 0 1 553.078 722.338)" fill="#5D2C28"/>
</g>
<path d="M587.462 686.799V737.723H2.53809V686.799H587.462Z" stroke="#131313" stroke-width="5.07692"/>
<g clip-path="url(#clip2_1070_928)">
<path d="M590 116.261V689.261H534V116.261H590Z" fill="#E69C69"/>
<rect x="576.848" y="127.646" width="551" height="38" transform="rotate(90 576.848 127.646)" fill="#BF6F4A"/>
<rect x="572" y="164.261" width="500" height="41" transform="rotate(90 572 164.261)" fill="#8A4836"/>
<rect x="567.004" y="156.611" width="18.9827" height="40.6154" transform="rotate(90 567.004 156.611)" fill="#8A4836"/>
<rect x="561.926" y="118.646" width="48.8128" height="40.6154" transform="rotate(90 561.926 118.646)" fill="#8A4836"/>
<rect x="577.156" y="118.646" width="8.13546" height="55.8462" transform="rotate(90 577.156 118.646)" fill="#8A4836"/>
<rect x="572.078" y="124.069" width="8.13546" height="55.8462" transform="rotate(90 572.078 124.069)" fill="#8A4836"/>
<rect x="567.004" y="129.493" width="8.13546" height="55.8462" transform="rotate(90 567.004 129.493)" fill="#8A4836"/>
<rect x="572.078" y="118.646" width="8.13546" height="50.7692" transform="rotate(90 572.078 118.646)" fill="#5D2C28"/>
<rect x="584.77" y="243.389" width="24.4064" height="5.07692" transform="rotate(90 584.77 243.389)" fill="#EEEEEE"/>
<rect x="584.77" y="433.217" width="56.9482" height="5.07692" transform="rotate(90 584.77 433.217)" fill="#EEEEEE"/>
<rect x="584.77" y="338.303" width="32.5418" height="5.07692" transform="rotate(90 584.77 338.303)" fill="#EEEEEE"/>
<rect x="584.77" y="676.481" width="8.13546" height="5.07692" transform="rotate(90 584.77 676.481)" fill="#EEEEEE"/>
<rect x="584.77" y="603.261" width="67.7955" height="5.07692" transform="rotate(90 584.77 603.261)" fill="#EEEEEE"/>
<rect x="543.848" y="118.646" width="566" height="7" transform="rotate(90 543.848 118.646)" fill="#5D2C28"/>
</g>
<path d="M587.462 686.723H536.538V118.799H587.462V686.723Z" stroke="#131313" stroke-width="5.07692"/>
<g clip-path="url(#clip3_1070_928)">
<path d="M0 121.261L0 689.261H56L56 121.261H0Z" fill="#E69C69"/>
<rect width="542.364" height="38.0769" transform="matrix(0 1 1 0 12.6914 131.781)" fill="#BF6F4A"/>
<rect width="490.839" height="40.6154" transform="matrix(0 1 1 0 17.7695 169.747)" fill="#8A4836"/>
<rect width="18.9827" height="40.6154" transform="matrix(0 1 1 0 22.8438 161.611)" fill="#8A4836"/>
<rect width="48.8128" height="40.6154" transform="matrix(0 1 1 0 27.9219 123.646)" fill="#8A4836"/>
<rect width="8.13546" height="55.8462" transform="matrix(0 1 1 0 12.6914 123.646)" fill="#8A4836"/>
<rect width="8.13546" height="55.8462" transform="matrix(0 1 1 0 17.7695 129.069)" fill="#8A4836"/>
<rect width="8.13546" height="55.8462" transform="matrix(0 1 1 0 22.8438 134.493)" fill="#8A4836"/>
<rect width="8.13546" height="50.7692" transform="matrix(0 1 1 0 17.7695 123.646)" fill="#5D2C28"/>
<rect width="24.4064" height="5.07692" transform="matrix(0 1 1 0 5.07812 248.389)" fill="#EEEEEE"/>
<rect width="56.9482" height="5.07692" transform="matrix(0 1 1 0 5.07812 438.217)" fill="#EEEEEE"/>
<rect width="32.5418" height="5.07692" transform="matrix(0 1 1 0 5.07812 343.303)" fill="#EEEEEE"/>
<rect width="8.13546" height="5.07692" transform="matrix(0 1 1 0 5.07812 668.722)" fill="#EEEEEE"/>
<rect width="67.7955" height="5.07692" transform="matrix(0 1 1 0 5.07812 595.502)" fill="#EEEEEE"/>
<rect width="555.923" height="7.61538" transform="matrix(0 1 1 0 45.6914 123.646)" fill="#5D2C28"/>
</g>
<path d="M2.53809 686.723H53.4619L53.4619 123.799H2.53809L2.53809 686.723Z" stroke="#131313" stroke-width="5.07692"/>
<rect x="119.517" y="38.49" width="350.102" height="40.3964" fill="#FFBF21" stroke="#442803" stroke-width="5.38619"/>
<path d="M456.156 41.1406H466.929V76.1509H456.156V41.1406Z" fill="#F19330"/>
<path d="M127.744 76.1934H122.211L122.074 41.1826H127.744V76.1934ZM466.931 46.5264H127.746V41.1406H466.931V46.5264Z" fill="#FFE9B2"/>
<path d="M127.746 76.1509H466.931V70.2261H127.746V76.1509Z" fill="#F19330"/>
<path d="M83.5781 47.604V64.3012H90.0416V54.0674H116.972V47.604H83.5781Z" fill="#442803"/>
<path d="M83.5781 100.389V83.6914H90.0416V93.9252H144.711V100.389H83.5781Z" fill="#442803"/>
<rect x="90.043" y="64.3013" width="6.46363" height="6.46363" fill="#442803"/>
<rect x="96.5039" y="70.7642" width="6.46363" height="6.46363" fill="#442803"/>
<rect x="90.043" y="77.228" width="6.46363" height="6.46363" fill="#442803"/>
<rect x="135.285" y="81.5371" width="9.42649" height="14.5437" fill="#442803"/>
<rect x="79" y="91.771" width="7.54225" height="8.61971" fill="#442803"/>
<path d="M118.441 83.407V81.5591H135.286V93.9473H128.994L127.301 92.3248L120.767 85.5689L118.441 83.407Z" fill="#FCC02C" stroke="#442803" stroke-width="3.23171"/>
<path d="M90.043 54.0674H116.827V64.3011H90.043V54.0674Z" fill="#E8C56F"/>
<path d="M90.043 83.6914H116.827L126.669 93.9252H90.043V83.6914Z" fill="#C39218"/>
<path d="M96.3556 64.3008H116.823V70.7642H96.3556V64.3008Z" fill="#C39218"/>
<path d="M96.3556 77.228H116.823V83.6915H96.3556V77.228Z" fill="#C39218"/>
<path d="M102.969 70.7642H116.827V77.228H102.969V70.7642Z" fill="#C39218"/>
<path d="M90.043 54.0493L96.3886 54.0494L96.3887 64.3063L90.043 64.3063L90.043 54.0493Z" fill="#FFE9B2"/>
<path d="M102.969 70.7642H109.503V77.2278H102.969V70.7642Z" fill="#FFE9B2"/>
<path d="M103.035 77.022H109.57V83.4856H103.035V77.022Z" fill="#FFE9B2"/>
<path d="M90.043 83.6938L96.3664 83.6939V93.9287L90.043 93.9286L90.043 83.6938Z" fill="#FFE9B2"/>
<mask id="path-143-outside-1_1070_928" maskUnits="userSpaceOnUse" x="144.512" y="79.1763" width="152" height="19" fill="black">
<rect fill="white" x="144.512" y="79.1763" width="152" height="19"/>
<path d="M144.512 79.1763H295.864V91.5645H144.512V79.1763Z"/>
</mask>
<path d="M144.512 79.1763H295.864V91.5645H144.512V79.1763Z" fill="#8B6B29"/>
<path d="M295.864 91.5645V85.6397H144.512V91.5645V97.4893H295.864V91.5645Z" fill="#442803" mask="url(#path-143-outside-1_1070_928)"/>
<path d="M505.457 47.604V64.3012H498.994V54.0674H472.063V47.604H505.457Z" fill="#442803"/>
<path d="M505.457 100.389V83.6914H498.994V93.9252H444.324V100.389H505.457Z" fill="#442803"/>
<rect width="6.46363" height="6.46363" transform="matrix(-1 0 0 1 498.996 64.3013)" fill="#442803"/>
<rect width="6.46363" height="6.46363" transform="matrix(-1 0 0 1 492.531 70.7642)" fill="#442803"/>
<rect width="6.46363" height="6.46363" transform="matrix(-1 0 0 1 498.996 77.228)" fill="#442803"/>
<rect width="9.42649" height="14.5437" transform="matrix(-1 0 0 1 453.75 81.5371)" fill="#442803"/>
<rect width="7.54225" height="8.61971" transform="matrix(-1 0 0 1 510.035 91.771)" fill="#442803"/>
<path d="M470.594 83.407V81.5591H453.749V93.9473H460.04L461.734 92.3248L468.268 85.5689L470.594 83.407Z" fill="#FCC02C" stroke="#442803" stroke-width="3.23171"/>
<path d="M498.996 54.0674H472.212V64.3011H498.996V54.0674Z" fill="#E8C56F"/>
<path d="M498.996 83.6914H472.212L462.37 93.9252H498.996V83.6914Z" fill="#C39218"/>
<path d="M492.68 64.3008H472.212V70.7642H492.68V64.3008Z" fill="#C39218"/>
<path d="M492.68 77.228H472.212V83.6915H492.68V77.228Z" fill="#C39218"/>
<path d="M486.066 70.7642H472.209V77.228H486.066V70.7642Z" fill="#C39218"/>
<path d="M498.996 54.0493L492.65 54.0494L492.65 64.3063L498.996 64.3063L498.996 54.0493Z" fill="#FFE9B2"/>
<path d="M486.066 70.7642H479.532V77.2278H486.066V70.7642Z" fill="#FFE9B2"/>
<path d="M486 77.022H479.465V83.4856H486V77.022Z" fill="#FFE9B2"/>
<path d="M498.996 83.6938L492.673 83.6939V93.9287L498.996 93.9286L498.996 83.6938Z" fill="#FFE9B2"/>
<mask id="path-162-outside-2_1070_928" maskUnits="userSpaceOnUse" x="292.523" y="79.1763" width="152" height="19" fill="black">
<rect fill="white" x="292.523" y="79.1763" width="152" height="19"/>
<path d="M444.523 79.1763H293.172V91.5645H444.523V79.1763Z"/>
</mask>
<path d="M444.523 79.1763H293.172V91.5645H444.523V79.1763Z" fill="#8B6B29"/>
<path d="M293.172 91.5645V85.6397H444.523V91.5645V97.4893H293.172V91.5645Z" fill="#442803" mask="url(#path-162-outside-2_1070_928)"/>
<rect x="253.172" y="32.0376" width="4.59328" height="18.3731" fill="#442803"/>
<rect x="253.172" y="13.7788" width="4.59328" height="18.2591" fill="#442803"/>
<rect x="253.172" y="9.18604" width="4.59328" height="4.59328" fill="#442803"/>
<rect x="266.965" y="9.18604" width="4.59328" height="4.59328" fill="#442803"/>
<rect x="262.363" y="13.7788" width="4.60897" height="4.59328" fill="#442803"/>
<rect x="262.363" y="9.18604" width="4.59328" height="4.59328" fill="#D9D9D9"/>
<rect x="262.363" y="18.3726" width="68.912" height="41.335" fill="#FFBF21"/>
<rect x="257.766" y="9.18604" width="4.59328" height="4.59328" fill="#F19330"/>
<rect x="266.965" y="13.7788" width="4.59328" height="4.59328" fill="#442803"/>
<rect opacity="0.3" x="266.965" y="18.3726" width="13.7798" height="4.59328" fill="#442803"/>
<rect x="271.559" y="13.7788" width="9.18655" height="4.59328" fill="#442803"/>
<rect x="280.746" y="9.18604" width="4.59328" height="4.59328" fill="#442803"/>
<rect x="285.34" y="4.59326" width="4.59328" height="4.59328" fill="#442803"/>
<rect x="299.117" y="4.59326" width="4.59328" height="4.59328" fill="#442803"/>
<rect x="303.711" y="9.18604" width="4.59328" height="4.59328" fill="#442803"/>
<rect x="317.492" y="9.18604" width="4.59328" height="4.59328" fill="#442803"/>
<rect x="308.309" y="13.7793" width="9.18655" height="4.59328" fill="#442803"/>
<path d="M335.866 50.521H331.273V4.59033H335.866V50.521ZM331.272 9.18311H322.086V4.59033H331.272V9.18311Z" fill="#442803"/>
<rect x="289.934" width="9.18655" height="4.59328" fill="#442803"/>
<rect x="257.766" y="50.522" width="4.59328" height="9.18655" fill="#442803"/>
<rect x="326.68" y="50.522" width="4.59328" height="9.18655" fill="#442803"/>
<rect opacity="0.5" x="262.363" y="59.7085" width="64.3186" height="4.59309" fill="#442803"/>
<rect x="253.172" y="4.33643" width="13.7955" height="4.84995" fill="#442803"/>
<rect x="257.766" y="13.7788" width="4.59328" height="36.7435" fill="#D9D9D9"/>
<rect x="317.492" y="18.3726" width="9.18655" height="9.07253" fill="#D9D9D9"/>
<rect x="311.809" y="29.854" width="4.59328" height="4.59328" fill="#D9D9D9"/>
<rect x="262.375" y="55.1147" width="64.3032" height="4.59309" fill="#F19330"/>
<rect x="285.34" y="9.18604" width="13.7798" height="4.59328" fill="#FFBF21"/>
<rect x="280.746" y="13.7793" width="22.9664" height="4.59328" fill="#FFBF21"/>
<rect x="317.492" y="13.7793" width="13.7781" height="4.59328" fill="#FFBF21"/>
<rect x="285.34" y="13.7793" width="4.59328" height="4.59328" fill="#D9D9D9"/>
<rect x="289.934" y="9.18604" width="4.59328" height="4.59328" fill="#D9D9D9"/>
<rect x="289.934" y="4.59326" width="9.18655" height="4.59328" fill="#F19330"/>
<rect x="299.117" y="9.18604" width="4.59328" height="4.59328" fill="#F19330"/>
<rect x="303.711" y="13.7793" width="4.59328" height="4.59328" fill="#F19330"/>
<rect x="322.082" y="9.18604" width="4.59328" height="4.59328" fill="#F19330"/>
<rect x="326.68" y="9.18604" width="4.59328" height="4.59328" fill="#FFBF21"/>
<rect x="264.434" y="45.3696" width="8.20544" height="4.10272" fill="#F19330"/>
<rect x="275.918" y="45.3696" width="8.20544" height="4.10272" fill="#F19330"/>
<rect x="287.41" y="45.3696" width="8.20544" height="4.10272" fill="#F19330"/>
<rect x="298.898" y="45.3696" width="8.20544" height="4.10272" fill="#F19330"/>
<rect x="310.383" y="45.3696" width="8.20544" height="4.10272" fill="#F19330"/>
<rect x="321.875" y="45.3701" width="8.20544" height="4.10272" fill="#F19330"/>
<defs>
<filter id="filter0_n_1070_928" x="49" y="114.261" width="502" height="580" filterUnits="userSpaceOnUse" color-interpolation-filters="sRGB">
<feFlood flood-opacity="0" result="BackgroundImageFix"/>
<feBlend mode="normal" in="SourceGraphic" in2="BackgroundImageFix" result="shape"/>
<feTurbulence type="fractalNoise" baseFrequency="0.18867923319339752 0.18867923319339752" stitchTiles="stitch" numOctaves="3" result="noise" seed="1665" />
<feColorMatrix in="noise" type="luminanceToAlpha" result="alphaNoise" />
<feComponentTransfer in="alphaNoise" result="coloredNoise1">
<feFuncA type="discrete" tableValues="0 0 0 0 0 0 0 0 0 0 0 0 0 0 1 1 1 1 1 1 1 1 1 1 1 1 1 1 1 1 1 1 1 1 1 0 0 0 0 0 0 0 0 0 0 0 0 0 0 0 0 0 0 0 0 0 0 0 0 0 0 0 0 0 0 0 0 0 0 0 0 0 0 0 0 0 0 0 0 0 0 0 0 0 0 0 0 0 0 0 0 0 0 0 0 0 0 0 0 0 "/>
</feComponentTransfer>
<feComposite operator="in" in2="shape" in="coloredNoise1" result="noise1Clipped" />
<feComponentTransfer in="alphaNoise" result="coloredNoise2">
<feFuncA type="discrete" tableValues="0 0 0 0 0 0 0 0 0 0 0 0 0 0 0 0 0 0 0 0 0 0 0 0 0 0 0 0 0 0 0 0 0 0 0 0 0 0 0 0 0 0 0 0 0 0 0 0 0 0 0 0 0 0 0 0 0 0 0 0 0 0 0 0 0 1 1 1 1 1 1 1 1 1 1 1 1 1 1 1 1 1 1 1 1 1 0 0 0 0 0 0 0 0 0 0 0 0 0 0 "/>
</feComponentTransfer>
<feComposite operator="in" in2="shape" in="coloredNoise2" result="noise2Clipped" />
<feFlood flood-color="rgba(138, 72, 54, 0.25)" result="color1Flood" />
<feComposite operator="in" in2="noise1Clipped" in="color1Flood" result="color1" />
<feFlood flood-color="rgba(230, 156, 105, 0.25)" result="color2Flood" />
<feComposite operator="in" in2="noise2Clipped" in="color2Flood" result="color2" />
<feMerge result="effect1_noise_1070_928">
<feMergeNode in="shape" />
<feMergeNode in="color1" />
<feMergeNode in="color2" />
</feMerge>
</filter>
<linearGradient id="paint0_linear_1070_928" x1="300" y1="694.261" x2="300" y2="114.261" gradientUnits="userSpaceOnUse">
<stop stop-color="#7A361D"/>
<stop offset="1" stop-color="#3B1E16"/>
</linearGradient>
<clipPath id="clip0_1070_928">
<path d="M0 65.2612H590V121.261H0V65.2612Z" fill="white"/>
</clipPath>
<clipPath id="clip1_1070_928">
<path d="M0 684.261H590V740.261H0V684.261Z" fill="white"/>
</clipPath>
<clipPath id="clip2_1070_928">
<path d="M590 116.261V689.261H534V116.261H590Z" fill="white"/>
</clipPath>
<clipPath id="clip3_1070_928">
<path d="M0 121.261L0 689.261H56L56 121.261H0Z" fill="white"/>
</clipPath>
</defs>
</svg>
