<svg width="19" height="19" viewBox="0 0 19 19" fill="none" xmlns="http://www.w3.org/2000/svg">
<path d="M18.6667 0H16.3333V2.33333H14V4.66667H11.6667V7H9.33333V9.33333H7V11.6667H4.66667V14H2.33333V16.3333H0V18.6667H2.33333V16.3333H4.66667V14H7V11.6667H9.33333V9.33333H11.6667V7H14V4.66667H16.3333V2.33333H18.6667V0ZM14 11.6667H18.6667V18.6667H11.6667V11.6667H14ZM16.3333 16.3333V14H14V16.3333H16.3333ZM2.33333 0H7V7H0V0H2.33333ZM4.66667 4.66667V2.33333H2.33333V4.66667H4.66667Z" fill="#EEEEEE"/>
</svg>
