<svg width="28" height="28" viewBox="0 0 28 28" fill="none" xmlns="http://www.w3.org/2000/svg">
<path d="M15.1667 0H12.8333V2.33333H10.5V4.66667H8.16667V7H10.5V4.66667H12.8333V12.8333H4.66667V10.5H7V8.16667H4.66667V10.5H2.33333V12.8333H0V15.1667H2.33333V17.5H4.66667V19.8333H7V17.5H4.66667V15.1667H12.8333V23.3333H10.5V21H8.16667V23.3333H10.5V25.6667H12.8333V28H15.1667V25.6667H17.5V23.3333H19.8333V21H17.5V23.3333H15.1667V15.1667H23.3333V17.5H21V19.8333H23.3333V17.5H25.6667V15.1667H28V12.8333H25.6667V10.5H23.3333V8.16667H21V10.5H23.3333V12.8333H15.1667V4.66667H17.5V7H19.8333V4.66667H17.5V2.33333H15.1667V0Z" fill="#EEEEEE"/>
</svg>
